<svg width="142" height="142" viewBox="0 0 142 142" fill="none" xmlns="http://www.w3.org/2000/svg">
<path d="M121.639 47.0952C122.269 47.7278 122.623 48.5847 122.623 49.478C122.623 50.3712 122.269 51.2281 121.639 51.8607L114.598 58.9077L101.098 45.4077L108.139 38.3607C108.772 37.728 109.63 37.3726 110.525 37.3726C111.42 37.3726 112.278 37.728 112.911 38.3607L121.639 47.0885V47.0952ZM109.826 63.6732L96.3261 50.1732L50.3384 96.1677C49.9669 96.5391 49.6872 96.9922 49.5217 97.4907L44.0879 113.785C43.9894 114.082 43.9754 114.401 44.0475 114.705C44.1196 115.01 44.275 115.288 44.4963 115.51C44.7176 115.731 44.9961 115.886 45.3007 115.959C45.6052 116.031 45.9238 116.017 46.2209 115.918L62.5154 110.484C63.0133 110.321 63.4663 110.044 63.8384 109.674L109.826 63.68V63.6732Z" fill="black"/>
<path fill-rule="evenodd" clip-rule="evenodd" d="M23.75 125.125C23.75 127.81 24.8167 130.386 26.7155 132.284C28.6143 134.183 31.1897 135.25 33.875 135.25H108.125C110.81 135.25 113.386 134.183 115.284 132.284C117.183 130.386 118.25 127.81 118.25 125.125V84.625C118.25 83.7299 117.894 82.8715 117.261 82.2385C116.629 81.6056 115.77 81.25 114.875 81.25C113.98 81.25 113.121 81.6056 112.489 82.2385C111.856 82.8715 111.5 83.7299 111.5 84.625V125.125C111.5 126.02 111.144 126.879 110.511 127.511C109.879 128.144 109.02 128.5 108.125 128.5H33.875C32.9799 128.5 32.1215 128.144 31.4885 127.511C30.8556 126.879 30.5 126.02 30.5 125.125V50.875C30.5 49.9799 30.8556 49.1215 31.4885 48.4885C32.1215 47.8556 32.9799 47.5 33.875 47.5H77.75C78.6451 47.5 79.5036 47.1444 80.1365 46.5115C80.7694 45.8786 81.125 45.0201 81.125 44.125C81.125 43.2299 80.7694 42.3714 80.1365 41.7385C79.5036 41.1056 78.6451 40.75 77.75 40.75H33.875C31.1897 40.75 28.6143 41.8167 26.7155 43.7155C24.8167 45.6143 23.75 48.1897 23.75 50.875V125.125Z" fill="black"/>
</svg>
