<svg width="245" height="246" viewBox="0 0 245 246" fill="none" xmlns="http://www.w3.org/2000/svg">
<g filter="url(#filter0_d_81_34)">
<ellipse cx="122.5" cy="119" rx="30.5" ry="31" fill="white"/>
</g>
<path d="M121.991 99L132.603 111.012C134.702 113.386 136.131 116.411 136.711 119.705C137.291 122.999 136.994 126.413 135.859 129.516C134.724 132.619 132.802 135.272 130.335 137.138C127.868 139.004 124.967 140 122 140C119.033 140 116.132 139.004 113.665 137.138C111.198 135.272 109.276 132.619 108.141 129.516C107.006 126.413 106.709 122.999 107.289 119.705C107.869 116.411 109.298 113.386 111.397 111.012L121.991 99Z" stroke="black" stroke-width="2" stroke-linecap="round" stroke-linejoin="round"/>
<defs>
<filter id="filter0_d_81_34" x="0" y="0" width="245" height="246" filterUnits="userSpaceOnUse" color-interpolation-filters="sRGB">
<feFlood flood-opacity="0" result="BackgroundImageFix"/>
<feColorMatrix in="SourceAlpha" type="matrix" values="0 0 0 0 0 0 0 0 0 0 0 0 0 0 0 0 0 0 127 0" result="hardAlpha"/>
<feMorphology radius="2" operator="dilate" in="SourceAlpha" result="effect1_dropShadow_81_34"/>
<feOffset dy="4"/>
<feGaussianBlur stdDeviation="45"/>
<feColorMatrix type="matrix" values="0 0 0 0 0.633333 0 0 0 0 0.607472 0 0 0 0 0.607472 0 0 0 0.25 0"/>
<feBlend mode="normal" in2="BackgroundImageFix" result="effect1_dropShadow_81_34"/>
<feBlend mode="normal" in="SourceGraphic" in2="effect1_dropShadow_81_34" result="shape"/>
</filter>
</defs>
</svg>
